<svg width="51" height="36" viewBox="0 0 51 36" fill="none" xmlns="http://www.w3.org/2000/svg">
<g clip-path="url(#clip0_1_1114)">
<path d="M13.3302 1.2804C13.3303 1.11943 13.2953 0.960409 13.2279 0.814578C13.1604 0.668747 13.0621 0.539666 12.9398 0.436463C12.6952 0.205117 12.3717 0.0779848 12.0367 0.0815367C11.8038 0.0777518 11.5746 0.140646 11.3756 0.262943C11.1562 0.404074 10.9896 0.614972 10.902 0.862374L6.73786 10.2114L2.56334 0.84397C2.47188 0.611079 2.31107 0.412633 2.10314 0.276053C1.89521 0.139474 1.65042 0.0715042 1.40259 0.0815367C1.04757 0.079776 0.703499 0.205576 0.431833 0.436463C0.296375 0.538044 0.186622 0.670551 0.111538 0.823162C0.036454 0.975774 -0.00183214 1.14416 -0.000193683 1.31458C-0.00164511 1.48194 0.034856 1.64742 0.106512 1.79833L5.31166 12.9772L3.45342 16.9839C3.3752 17.1552 3.3293 17.3398 3.31809 17.5281C3.31575 17.6859 3.35009 17.8421 3.41834 17.9841C3.48659 18.1261 3.58685 18.25 3.71107 18.3458C3.95587 18.5555 4.26716 18.6694 4.58814 18.6665C4.82369 18.6655 5.05368 18.5941 5.24919 18.4614C5.46262 18.3199 5.62866 18.1164 5.72546 17.8778L13.2235 1.79833C13.2944 1.63509 13.3308 1.45867 13.3302 1.2804Z" fill="#2963A3"/>
<path d="M39.5071 12.5118C39.4991 12.6807 39.5263 12.8493 39.5868 13.0069C39.6473 13.1645 39.7399 13.3075 39.8585 13.4267C39.982 13.5416 40.1267 13.6306 40.2844 13.6888C40.442 13.747 40.6095 13.7732 40.7772 13.7659C41.1428 13.7818 41.5002 13.6536 41.774 13.4083C41.9002 13.2915 42.0001 13.1486 42.067 12.9894C42.1339 12.8302 42.1662 12.6584 42.1618 12.4855V1.3908C42.1708 1.21084 42.1431 1.03093 42.0804 0.862232C42.0178 0.693535 41.9214 0.539656 41.7974 0.410152C41.5163 0.179307 41.1644 0.0543847 40.8022 0.0567829C40.4399 0.0591811 40.0897 0.188751 39.8116 0.423298C39.6856 0.549219 39.587 0.700291 39.522 0.866874C39.457 1.03346 39.4271 1.21189 39.4343 1.3908V7.79787C39.4343 8.94064 39.115 9.85819 38.4765 10.5505C38.1492 10.8971 37.7523 11.1689 37.3123 11.3476C36.8724 11.5262 36.3997 11.6077 35.926 11.5864C35.029 11.5864 34.3636 11.3322 33.9298 10.8239C33.4961 10.3157 33.28 9.52693 33.2818 8.45777V1.3908C33.2908 1.21084 33.2631 1.03093 33.2005 0.862232C33.1378 0.693535 33.0414 0.539656 32.9174 0.410152C32.7839 0.287248 32.6274 0.192539 32.4571 0.131589C32.2868 0.0706386 32.1062 0.0446762 31.9258 0.0552264C31.7423 0.044194 31.5584 0.0698661 31.3846 0.130771C31.2109 0.191677 31.0508 0.286617 30.9134 0.410152C30.7882 0.538814 30.6911 0.692558 30.6284 0.861466C30.5656 1.03037 30.5386 1.2107 30.5491 1.3908V8.48932C30.5491 12.0508 32.1505 13.8316 35.3534 13.8316C36.2042 13.8433 37.0441 13.6371 37.7946 13.2322C38.523 12.833 39.1186 12.2258 39.5071 11.4865V12.5118Z" fill="#2963A3"/>
<path d="M15.3551 33.8914L14.5977 33.8362C13.8794 33.7819 13.3442 33.5549 12.992 33.1553C12.6432 32.7556 12.4714 32.1273 12.4714 31.2728V24.6765H15.1339C15.4483 24.7004 15.7604 24.6069 16.0109 24.4136C16.1171 24.3135 16.2 24.1908 16.2536 24.0544C16.3071 23.918 16.33 23.7713 16.3207 23.6248C16.329 23.4785 16.3055 23.3321 16.2521 23.1959C16.1986 23.0597 16.1163 22.9369 16.0109 22.8361C15.7647 22.6326 15.4515 22.5302 15.1339 22.5496H12.461V19.7417C12.4712 19.5605 12.4427 19.3792 12.3776 19.21C12.3125 19.0409 12.2123 18.8878 12.0837 18.761C11.8092 18.5151 11.4508 18.3869 11.0843 18.4035C10.9052 18.394 10.7261 18.4205 10.5572 18.4814C10.3883 18.5423 10.2331 18.6365 10.1005 18.7584C9.97531 18.8871 9.8782 19.0408 9.81544 19.2097C9.75268 19.3786 9.72567 19.559 9.73614 19.7391V22.5496H8.11734C7.79965 22.5297 7.48629 22.6321 7.24028 22.8361C7.13405 22.9363 7.05098 23.059 6.997 23.1953C6.94302 23.3316 6.91945 23.4783 6.92797 23.6248C6.92797 24.3259 7.32443 24.6765 8.11734 24.6765H9.73614V31.0836C9.73614 32.6268 10.0953 33.7968 10.8162 34.5855C11.5371 35.3742 12.6224 35.8264 14.0798 35.9368L14.8086 35.9894C15.2321 36.0512 15.6639 35.9698 16.037 35.7581C16.1722 35.6683 16.282 35.5444 16.3555 35.3988C16.4289 35.2531 16.4636 35.0906 16.456 34.9273C16.4634 34.7952 16.4441 34.663 16.3994 34.5388C16.3547 34.4145 16.2854 34.3007 16.1957 34.2043C15.959 34.0062 15.6624 33.8958 15.3551 33.8914Z" fill="#2963A3"/>
<path d="M36.0118 16.4974C35.6534 16.4852 35.3031 16.6068 35.028 16.8391C34.8939 16.965 34.7892 17.1196 34.7217 17.2915C34.6541 17.4634 34.6254 17.6484 34.6376 17.8329V34.6827C34.6246 34.8654 34.6529 35.0487 34.7206 35.2186C34.7882 35.3886 34.8934 35.5407 35.028 35.6634C35.3067 35.8874 35.6558 36.0031 36.0118 35.9894C36.3648 36.0046 36.7111 35.8886 36.9851 35.6634C37.1159 35.5383 37.2176 35.3854 37.2828 35.2158C37.3481 35.0463 37.3753 34.8642 37.3625 34.6827V17.8329C37.3745 17.6496 37.347 17.4658 37.2819 17.2942C37.2167 17.1226 37.1155 16.9673 36.9851 16.8391C36.7147 16.6058 36.3672 16.4837 36.0118 16.4974Z" fill="#2963A3"/>
<path d="M50.5131 33.6995L45.2247 28.9829L50.0291 24.5397C50.1683 24.4226 50.2814 24.277 50.3608 24.1125C50.4402 23.948 50.4841 23.7683 50.4897 23.5854C50.4811 23.2481 50.3445 22.9271 50.1081 22.6887C49.8716 22.4504 49.5536 22.313 49.2197 22.305C48.8832 22.3268 48.5664 22.4728 48.3296 22.7152L42.1771 28.5202V17.833C42.1897 17.6495 42.1624 17.4656 42.0972 17.2939C42.032 17.1222 41.9305 16.967 41.7997 16.8392C41.5303 16.6057 41.1836 16.4836 40.829 16.4974C40.4698 16.485 40.1186 16.6067 39.8426 16.8392C39.7085 16.9651 39.6038 17.1196 39.5363 17.2915C39.4687 17.4634 39.44 17.6484 39.4522 17.833V34.6591C39.44 34.844 39.4687 35.0294 39.5362 35.2017C39.6037 35.3741 39.7084 35.5291 39.8426 35.6555C40.119 35.887 40.4701 36.0077 40.829 35.9946C41.1833 36.0091 41.53 35.888 41.7997 35.6555C41.9306 35.5271 42.0321 35.3714 42.0973 35.1994C42.1624 35.0273 42.1897 34.8429 42.1771 34.6591V29.6112L48.8969 35.6082C49.1412 35.8529 49.4716 35.99 49.8156 35.9894C49.9738 35.9902 50.1303 35.9566 50.2745 35.8908C50.4187 35.825 50.5471 35.7286 50.6511 35.6082C50.8844 35.3665 51.0135 35.0413 51.0102 34.7038C51.0095 34.509 50.9643 34.317 50.8781 34.1428C50.7918 33.9686 50.667 33.8169 50.5131 33.6995Z" fill="#2963A3"/>
<path d="M15.3343 13.821H22.33C23.5218 13.8471 24.6994 13.556 25.7446 12.977C26.719 12.4167 27.5076 11.578 28.0114 10.5662C28.5603 9.43395 28.8325 8.18531 28.8052 6.92491C28.8357 5.65661 28.5634 4.39954 28.0114 3.25997C27.5092 2.24569 26.7203 1.4048 25.7446 0.843843C24.6994 0.264855 23.5218 -0.0261954 22.33 -9.18286e-05H20.1204C18.9295 -0.0262278 17.7527 0.264839 16.7085 0.843843C15.7316 1.40328 14.9423 2.24458 14.4416 3.25997C13.8888 4.39932 13.6156 5.65639 13.6452 6.92491V10.7791C13.6452 13.0007 14.2074 13.821 15.3343 13.821ZM17.3695 3.41771C18.0184 2.61146 18.9354 2.20834 20.1204 2.20834H22.33C23.5168 2.20834 24.4346 2.61321 25.0835 3.42297C25.7325 4.23273 26.056 5.40004 26.0543 6.92491C26.0543 8.46905 25.7351 9.64075 25.0966 10.44C24.4581 11.2392 23.5359 11.6397 22.33 11.6415H16.43C16.43 11.6415 16.3962 8.46818 16.3962 6.92491C16.3962 5.38164 16.7215 4.2301 17.3695 3.41771Z" fill="#2963A3"/>
<path d="M29.6094 23.0227C28.5657 22.442 27.3887 22.15 26.1974 22.1762H23.9878C22.7959 22.1513 21.6184 22.4432 20.5733 23.0227C19.5977 23.5826 18.8087 24.4227 18.3064 25.4362C17.7604 26.5775 17.4927 27.8341 17.5257 29.1012C17.4952 30.3604 17.7629 31.6088 18.3064 32.7425C18.8095 33.7548 19.5983 34.5938 20.5733 35.1533C21.6186 35.732 22.7961 36.023 23.9878 35.9973H30.9836C32.1131 35.9973 32.6726 35.177 32.6726 32.9475V29.1012C32.7029 27.8326 32.4297 26.5754 31.8762 25.4362C31.3756 24.4215 30.5862 23.5811 29.6094 23.0227ZM29.8879 33.8177H23.9878C22.7855 33.8177 21.8633 33.4181 21.2213 32.6189C20.5793 31.8196 20.261 30.6471 20.2662 29.1012C20.2662 27.5728 20.5898 26.4055 21.2369 25.5992C21.8841 24.793 22.8011 24.3881 23.9878 24.3846H26.1974C27.3842 24.3846 28.302 24.7895 28.951 25.5992C29.5999 26.409 29.9261 27.5763 29.9295 29.1012C29.9295 30.6445 29.8879 33.8177 29.8879 33.8177Z" fill="#2963A3"/>
</g>
<defs>
<clipPath id="clip0_1_1114">
<rect width="51" height="36" fill="white"/>
</clipPath>
</defs>
</svg>
